<?xml version="1.0" encoding="UTF-8"?>
<svg xmlns="http://www.w3.org/2000/svg" version="1.1" viewBox="0 0 143.3 35">
  <defs>
    <style>
      .cls-1 {
        fill: #fff;
      }
    </style>
  </defs>
  <!-- Generator: Adobe Illustrator 28.6.0, SVG Export Plug-In . SVG Version: 1.2.0 Build 709)  -->
  <g>
    <g id="katman_1">
      <g>
        <path class="cls-1" d="M46.5,30.8h-11.3c-.2,0-.4,0-.6-.2-1.5-1.7-2.5-3.6-3-5.8-.4-1.5-.6-3.1-.6-4.6,0-1.8,0-3.5,0-5.3,0-2.7.6-5.4,1.9-7.8,1.8-3.4,4.6-5.5,8.3-6.4,2.6-.7,5.3-.8,8-.2,3.5.7,6.2,2.7,8.1,5.8,1.2,2,1.9,4.1,2.3,6.4.5,2.5.5,5,.5,7.5,0,.1,0,.2-.2.2h-20.6c-.2,0-.3,0-.3-.3,0-1.6,0-3.1,0-4.7s.1-.3.3-.3h13.8c.2,0,.3,0,.3-.3-.2-1.7-.5-3.3-1.3-4.8-1.4-2.5-3.5-3.7-6.4-3.6-1.4,0-2.7.3-4,1-1.8,1-2.9,2.6-3.5,4.5-.4,1.1-.5,2.3-.5,3.6,0,1.7,0,3.3,0,5,0,1.4.2,2.8.8,4.1.9,2.1,2.5,3.4,4.7,4,4.2,1.1,7.9.2,11.2-2.5.1-.1.2-.1.3,0,1.4,1.4,2.8,2.7,4.2,4,.2.1.2.2,0,.4-.8.7-.8.7-1.8.7h-10.7Z"/>
        <path class="cls-1" d="M8.3,8.8V3.8c0-.2,0-.3.1-.4C10.4,1.4,12.9.2,15.8,0c2,0,3.9.1,5.8.9,2.6,1.1,4.4,2.9,5.5,5.4.7,1.6,1.1,3.2,1.3,5,.1,1,.1,2,.1,3v16.1c0,.3,0,.3-.3.3-2.1,0-4.3,0-6.4,0-.2,0-.3,0-.3-.3V13.7c0-1.1-.1-2.2-.5-3.2-.7-1.9-2-3.1-3.9-3.7-2.1-.7-4.3-.6-6.4.2-.9.3-1.7.9-2.4,1.8h0Z"/>
        <path class="cls-1" d="M87.4,30.8h-7.4c-.2,0-.3,0-.4-.2-1.6-2.4-3.2-4.7-4.9-7.1-4.3-6.4-8.8-12.6-13.3-18.9-.9-1.3-1.8-2.5-2.7-3.8,0,0,0-.1-.2-.2h7.5c.2,0,.3,0,.4.2,2.4,3.6,4.8,7.1,7.2,10.7,1.4,2.1,2.9,4.3,4.4,6.4,3,4.3,6.1,8.5,9.1,12.7,0,0,.1.1.2.3h0Z"/>
        <path class="cls-1" d="M7,15.6v14.8c0,.2,0,.3-.3.3H.3C0,30.8,0,30.7,0,30.5V.8C0,.6,0,.5.2.5h6.5c.2,0,.2,0,.2.3v14.9h0Z"/>
        <path class="cls-1" d="M78.7,16.3c-1.2-1.8-2.4-3.5-3.6-5.2,0-.1,0-.2,0-.3,1.6-2.4,3.1-4.8,4.7-7.3.6-1,1.2-1.9,1.8-2.9,0-.1.2-.2.3-.2h7.6c-3.6,5.3-7.2,10.5-10.9,15.8h0Z"/>
        <path class="cls-1" d="M60.8,30.8c3-4.2,5.9-8.3,8.9-12.4.8,1.2,1.6,2.3,2.4,3.5.4.6.8,1.2,1.3,1.8,0,.1.1.2,0,.4-1.6,2.2-3.1,4.4-4.7,6.6,0,.1-.2.2-.3.2h-7.4s0,0-.2,0h0Z"/>
        <path class="cls-1" d="M98,2.7c0-.7,0-1.4,0-2,0-.1,0-.2.2-.2h0c2.7,0,5.3,0,8,0,2.2,0,4.4.4,6.4,1.4.4.2.9.4,1.3.7,0,.1-.2.1-.2.1,0,0-.2,0-.3,0h-14.8c-.2,0-.3,0-.5,0h0Z"/>
        <path class="cls-1" d="M113.3,32.6c-1.4.8-2.8,1.2-4.4,1.5-1.4.3-2.8.3-4.3.3h-6.4c-.2,0-.3,0-.3-.3,0-.6,0-1.2,0-1.8.1-.1.3,0,.5,0h14.3c.1,0,.3,0,.4,0,0,0,.2,0,.2.2h0Z"/>
        <path class="cls-1" d="M37.9,33h16.9c-2.4,1.2-4.9,1.9-7.6,2-3.2,0-6.4-.4-9.3-2Z"/>
        <path class="cls-1" d="M113.3,32.6c0-.1-.2-.1-.3-.1,0,0-.2,0-.2,0h-14.8c0-.3,0-.6,0-1,0-.1,0-.2.2-.2h6.9c1.5,0,2.9-.2,4.3-.5.2,0,.4,0,.6,0h5.1c.2,0,.3,0,.5.1-.7.6-1.3,1.3-2.2,1.7h0Z"/>
        <path class="cls-1" d="M98,2.7h15.5c.1,0,.3,0,.4,0,.7.4,1.3.9,1.8,1.5-.1.2-.3.1-.4.1h-4.9c-.2,0-.4,0-.6,0-1-.3-2-.5-3.1-.6,0,0-.2,0-.3,0-.2,0-.3,0-.5,0,0,0-.2,0-.3,0h-7.3c0,0-.2,0-.3,0,0-.3,0-.6,0-.9h0Z"/>
        <path class="cls-1" d="M35.5,31.4h21.7c-.3.2-.6.4-.9.6,0,0,0,0-.1,0h-.2c-5.9,0-11.9,0-17.8,0-.5,0-1,0-1.5,0-.2,0-.4,0-.5-.2-.2-.2-.4-.3-.6-.5h0Z"/>
        <path class="cls-1" d="M81.3,32.9h7.5c.2,0,.3,0,.4.2.3.5.6.9,1,1.4,0,0-.2,0-.3,0h-7.2c-.2,0-.3,0-.4-.2-.3-.5-.6-.9-1-1.4Z"/>
        <path class="cls-1" d="M67,32.9c-.4.5-.7,1-1.1,1.5,0,0-.1,0-.2,0h-7.5s0,0,0,0c.3-.4.6-.8.8-1.2.2-.3.4-.3.7-.3h7.3,0Z"/>
        <path class="cls-1" d="M25,34.5h-3.2c-.2,0-.3,0-.3-.3,0-.3,0-.6,0-.9,0-.2,0-.3.3-.3,1.2,0,2.3,0,3.5,0s2,0,3,0c.2,0,.2,0,.2.2,0,.3,0,.7,0,1,0,.2,0,.3-.3.3-1.1,0-2.2,0-3.3,0h0Z"/>
        <path class="cls-1" d="M3.5,34.5H.2C0,34.5,0,34.4,0,34.2,0,33.9,0,33.5,0,33.2,0,33,0,33,.2,33h2.1c1.5,0,2.9,0,4.4,0,.3,0,.3,0,.3.3,0,.3,0,.6,0,1,0,.2,0,.2-.2.2-1.1,0-2.2,0-3.3,0h0Z"/>
        <path class="cls-1" d="M97.1,31.9c0,.8,0,1.6,0,2.5,0,.1,0,.2-.2.2h-3.2c-.1,0-.2,0-.2-.2,0-.8,0-1.6,0-2.5,0,0,.2,0,.3,0h2.8c.1,0,.2,0,.3,0h0Z"/>
        <path class="cls-1" d="M117.9,2.9c-.6-.8-1.1-1.6-1.7-2.4,0,0,.1,0,.2,0h3.5c.1,0,.2,0,.3.1.5.7,1,1.5,1.5,2.2-.1.1-.3,0-.4,0-1.1,0-2.2,0-3.3,0h0,0Z"/>
        <path class="cls-1" d="M97.1,2.6v2.5c0,0-.2,0-.3,0h-2.8c-.1,0-.2,0-.3,0v-2.5c0,0,.2,0,.3,0h2.8c.1,0,.2,0,.3,0h0Z"/>
        <path class="cls-1" d="M128.5,21.6c-.5.7-1,1.5-1.5,2.2,0,0,0,0,0,.1-.2,0-.4,0-.6,0h-2.7c-.2,0-.3,0-.4-.1.5-.8,1-1.5,1.5-2.2.1,0,.2,0,.4,0h3.1c.1,0,.3,0,.4.1h0Z"/>
        <path class="cls-1" d="M109.7,4.3c0-.1.2,0,.3,0h5.3c.1,0,.2,0,.3,0,.5.5.9,1.1,1.3,1.8-.1.1-.2,0-.4,0h-3.2c-.2,0-.4,0-.7,0-.8-.8-1.8-1.3-2.9-1.7h0Z"/>
        <path class="cls-1" d="M117.7,26.9c-.2.7-.5,1.4-.9,2.1,0,0-.2,0-.3,0h-3.6c-.1,0-.3,0-.4,0,.6-.6,1.1-1.4,1.5-2.1,0,0,.2,0,.3,0h3c.2,0,.3,0,.4.2h0Z"/>
        <path class="cls-1" d="M123.1,23.8c.1,0,.2,0,.4,0h3.1c0,0,.2,0,.3.1-.4.7-.9,1.3-1.3,2,0,0,0,.1-.2.2-.2,0-.4,0-.6,0h-2.8c-.1,0-.3,0-.4-.1.5-.7,1-1.5,1.5-2.2h0Z"/>
        <path class="cls-1" d="M130.4,14.1c-.3-.3-.3-.6,0-1,.3-.4.5-.8.8-1.2.1,0,.2,0,.3,0h3.1c.1,0,.3,0,.4.2-.4.7-.9,1.4-1.4,2-.2,0-.3,0-.5,0-.8,0-1.7,0-2.5,0,0,0-.1,0-.2,0h0Z"/>
        <path class="cls-1" d="M123.9,6.1c.5.7.9,1.3,1.3,2,0,.1-.2.1-.3.1-1.1,0-2.2,0-3.3,0s0,0-.2,0c-.5-.7-1-1.3-1.4-2,0,0,.2,0,.3,0h3.3c0,0,.1,0,.2,0h0Z"/>
        <path class="cls-1" d="M133.6,25.9c-.5-.6-.9-1.3-1.3-1.9,0-.2.2-.2.3-.2.4,0,.8,0,1.2,0h1.9c.1,0,.3,0,.4,0,.5.6.9,1.3,1.4,2,0,0-.2,0-.3,0h-3.4s0,0-.1,0h0Z"/>
        <path class="cls-1" d="M97.1,2.6h-3.5c0-.7,0-1.3,0-2,0-.1,0-.2.2-.2h3.2c.1,0,.2,0,.2.2,0,.7,0,1.3,0,2h0Z"/>
        <path class="cls-1" d="M114.8,23.8c0-.3,0-.7,0-1,0-.3,0-.7,0-1s0-.2,0-.2c0,0,.2,0,.3,0h2.9c0,0,.2,0,.3,0,0,.5,0,.9,0,1.3,0,.3,0,.6,0,1-.1,0-.2,0-.4,0h-2.7c-.1,0-.2,0-.4,0h0Z"/>
        <path class="cls-1" d="M142,32.6c.4.6.8,1.2,1.2,1.8,0,.1,0,.1,0,.1h-3.6c0,0-.1,0-.2,0-.4-.6-.8-1.1-1.1-1.7,0-.1,0-.2.1-.2,0,0,.2,0,.3,0h3.1c0,0,.2,0,.3,0Z"/>
        <path class="cls-1" d="M93.6,5.2h3.5v2.1c0,0-.2,0-.3,0h-2.8c-.1,0-.2,0-.3,0v-2.1h0Z"/>
        <path class="cls-1" d="M97.1,25.5v2.1c0,0-.2,0-.3,0h-2.8c-.1,0-.2,0-.3,0v-2.1c0,0,.2,0,.3,0h2.8c.1,0,.2,0,.3,0Z"/>
        <path class="cls-1" d="M125.1,13.6c-.5-.6-.9-1.3-1.3-1.9,0,0,.2,0,.3,0,1.1,0,2.2,0,3.3,0,0,0,.1,0,.2,0,.5.6.9,1.3,1.3,1.9-.1,0-.2,0-.3,0-1.1,0-2.2,0-3.3,0,0,0-.1,0-.2,0h0Z"/>
        <path class="cls-1" d="M130,15.1c.4.6.9,1.2,1.3,1.9-.1.1-.2,0-.4,0h-2.4c-.3,0-.6,0-1,0-.4-.6-.9-1.2-1.3-1.9,0-.1,0-.2.2-.2.1,0,.2,0,.3,0h2.8c.1,0,.3,0,.4,0h0Z"/>
        <path class="cls-1" d="M138.5,27.4c.4.6.9,1.2,1.3,1.9-.1.1-.2,0-.4,0h-2.5c-.3,0-.6,0-.9,0-.5-.6-.9-1.3-1.3-1.9,0,0,.2,0,.3,0h3.4c0,0,.1,0,.2,0h0Z"/>
        <path class="cls-1" d="M134.4,7.1c.4-.6.8-1.2,1.2-1.8,0,0,.1,0,.2,0h3.2c.1,0,.3,0,.4.2-.4.6-.7,1.2-1.2,1.7-.1,0-.2,0-.4,0h-3.1c-.1,0-.3,0-.4-.1h0Z"/>
        <path class="cls-1" d="M118.3,22.9c0-.4,0-.9,0-1.3,0,0,0-.2,0-.3v-1.4c0-.7,0-1.4,0-2,0-.9,0-1.9,0-2.8,0-.4,0-.9,0-1.4s0-.3-.3-.3h-2.7c-.3,0-.3,0-.3.3v1.4c0,.9,0,1.9,0,2.8,0,.7,0,1.4,0,2,0,.5,0,.9,0,1.4s0,.2,0,.3c0,.4,0,.8,0,1.2,0-.1,0-.2,0-.3v-10.8c0,0,.2,0,.3,0h2.8c.1,0,.2,0,.3,0,0,.3,0,.6,0,1v10c0,.1,0,.2,0,.3Z"/>
        <path class="cls-1" d="M133.7,20.4c.4.6.9,1.2,1.3,1.8,0,.1-.2.1-.3.1-1.1,0-2.2,0-3.3,0s-.1,0-.1,0c-.4-.6-.9-1.2-1.3-1.9,0,0,.2,0,.3,0h3.4c0,0,.1,0,.1,0h0Z"/>
        <path class="cls-1" d="M133.7,20.4c-.1,0-.2,0-.3,0h-3.4c-.4-.6-.8-1.2-1.2-1.8,0-.2.2-.1.4-.1h2.6c.3,0,.5,0,.8,0,.4.6.9,1.2,1.3,1.8h0Z"/>
        <path class="cls-1" d="M117.9,2.9c0-.2.2,0,.3,0h3.5c.4.6.8,1.2,1.2,1.8-.1.1-.2,0-.4,0h-2.4c-.3,0-.6,0-1,0-.4-.6-.8-1.2-1.2-1.8Z"/>
        <path class="cls-1" d="M124.2,27.9c-.4.6-.8,1.2-1.2,1.7-1.2,0-2.3,0-3.5,0s-.2,0-.3-.1c.4-.6.8-1.2,1.2-1.7,0,0,.2,0,.3,0h3.1c.1,0,.3,0,.3.2h0Z"/>
        <path class="cls-1" d="M134.9,12c0-.1-.2-.1-.3-.1h-3.5c.4-.6.8-1.2,1.2-1.8,0,0,.1,0,.2,0,1.1,0,2.2,0,3.3,0,.1,0,.3,0,.4,0-.4.6-.8,1.2-1.2,1.8,0,0,0,0-.1.1h0Z"/>
        <path class="cls-1" d="M120.9,32.8c-.3.5-.7,1-1,1.5,0,.1-.2.2-.3.2h-3.4c0,0-.2,0-.2,0,0,0,0-.1,0-.2.3-.5.7-1,1.1-1.5,0,0,.2,0,.3,0h3.1c.1,0,.3,0,.4.2h0Z"/>
        <path class="cls-1" d="M127.6,11.6c-.1,0-.3,0-.4,0h-3.4c-.4-.5-.8-1.1-1.2-1.7,0-.2.2-.2.3-.2.5,0,1,0,1.5,0h1.6c.1,0,.2,0,.4,0,.4.6.8,1.1,1.1,1.7h0Z"/>
        <path class="cls-1" d="M93.6,17v-1.9c0,0,.2,0,.3,0h2.8c.1,0,.2,0,.3,0v1.9c0,0-.2,0-.3,0h-2.8c-.1,0-.2,0-.3,0Z"/>
        <path class="cls-1" d="M136,29.4c0-.1.2-.1.3-.1h3.5c.4.6.8,1.1,1.2,1.7-.1.1-.2,0-.4,0h-2.6c-.3,0-.6,0-.9,0-.4-.6-.8-1.1-1.2-1.7h0Z"/>
        <path class="cls-1" d="M124.2,27.9c0-.1-.2-.1-.3-.1h-3.5c.4-.6.8-1.2,1.2-1.8,0,0,.2,0,.3,0h3.2c0,0,.2,0,.3.1-.3.5-.7,1-1,1.5,0,0-.1.1-.2.2h0Z"/>
        <path class="cls-1" d="M93.6,12.5v-1.9c0,0,.2,0,.3,0h2.8c.1,0,.2,0,.3,0v1.9c0,0-.2,0-.3,0h-2.8c-.1,0-.2,0-.3,0Z"/>
        <path class="cls-1" d="M126.5,9.8h-3.4c-.1,0-.3,0-.3.1-.4-.6-.8-1.1-1.2-1.7,0,0,.2,0,.3,0h2.8c.3,0,.5,0,.8,0,.4.6.8,1.2,1.2,1.7h0Z"/>
        <path class="cls-1" d="M119.3,29.5c.1,0,.2,0,.3,0h3.2c0,0,.2,0,.3,0-.3.5-.7,1-1,1.5,0,0-.1.2-.2.2-.2,0-.3,0-.5,0h-2.9c-.1,0-.3,0-.4-.1.4-.6.8-1.1,1.1-1.7h0Z"/>
        <path class="cls-1" d="M132.4,18.6c-.1,0-.2,0-.3,0h-3.1c-.1,0-.2,0-.3,0-.4-.5-.8-1.1-1.1-1.6,0-.1.2-.1.4-.1h3.4c.4.5.7,1.1,1.1,1.6h0Z"/>
        <path class="cls-1" d="M93.6,17h3.5v1.8c0,0-.2,0-.3,0h-2.8c-.1,0-.2,0-.3,0v-1.8h0Z"/>
        <path class="cls-1" d="M93.6,27.5h3.5v1.8c0,0-.2,0-.3,0h-2.8c-.1,0-.2,0-.3,0v-1.8h0Z"/>
        <path class="cls-1" d="M137.8,2c.3-.5.7-1,1-1.5,0,0,.1,0,.2,0h3.8c-.4.6-.8,1.1-1.2,1.7-.6,0-1.2,0-1.9,0h-1.5c-.2,0-.3,0-.4-.1h0Z"/>
        <path class="cls-1" d="M137.1,31.1c0-.1.2-.1.3-.1h3.5c.4.5.7,1.1,1.1,1.6-.1,0-.2,0-.3,0h-3.2c-.1,0-.2,0-.3.1-.4-.5-.8-1.1-1.1-1.6h0Z"/>
        <path class="cls-1" d="M138.5,27.4c-.1,0-.2,0-.3,0h-3.5c-.4-.5-.8-1-1.1-1.6,0-.1.2,0,.3,0h3.6c.4.5.7,1,1.1,1.6h0Z"/>
        <path class="cls-1" d="M139.4,5.4c0-.1-.2,0-.3,0h-3.1c-.1,0-.2,0-.3,0,.3-.5.7-1.1,1.1-1.6.1,0,.2,0,.4,0h3.1c.1,0,.3,0,.4.1-.3.5-.6.9-.9,1.4,0,0-.1.2-.2.3h0Z"/>
        <path class="cls-1" d="M112.6,6c0-.2.2-.1.3-.1h4c.3.5.5,1,.7,1.5,0,0-.2,0-.3,0-1.1,0-2.2,0-3.3,0,0,0-.1,0-.2,0-.3-.5-.7-1-1.1-1.5h0Z"/>
        <path class="cls-1" d="M93.6,7.2h3.5v1.8c0,0-.2,0-.3,0h-2.8c-.1,0-.2,0-.3,0v-1.8h0Z"/>
        <path class="cls-1" d="M93.6,22.2v-1.8c0,0,.2,0,.3,0h2.8c.1,0,.2,0,.3,0v1.8c0,0-.2,0-.3,0h-2.8c-.1,0-.2,0-.3,0Z"/>
        <path class="cls-1" d="M140.6,3.7c-.1,0-.2,0-.3,0h-3.5c.4-.6.7-1.1,1.1-1.6.5,0,.9,0,1.4,0h2.1c0,0,.2,0,.3,0-.4.5-.7,1-1.1,1.6h0Z"/>
        <path class="cls-1" d="M119.1,4.7c0-.1.2-.1.4-.1h3.4c.4.5.7,1,1,1.5-.1,0-.3,0-.4,0h-3.4c-.4-.5-.7-1-1-1.5h0Z"/>
        <path class="cls-1" d="M117.7,26.9c0-.1-.2-.1-.4-.1h-3.3c.2-.5.4-1.1.5-1.7,0,0,.2,0,.3,0h2.9c.1,0,.2,0,.3,0-.1.6-.2,1.2-.4,1.8h0Z"/>
        <path class="cls-1" d="M130,15.1h-3.4c-.1,0-.3,0-.4.1-.4-.5-.8-1.1-1.1-1.6.2,0,.3,0,.4,0h3.3c.4.5.7,1,1.1,1.6h0Z"/>
        <path class="cls-1" d="M131.2,22.3c0,0,.2,0,.3,0h3.1c.1,0,.3,0,.4,0,.4.5.7,1,1.1,1.6h-3.5c-.1,0-.2,0-.3.1-.4-.5-.7-1-1.1-1.6h0Z"/>
        <path class="cls-1" d="M136.2,10.1h-3.4c-.1,0-.3,0-.4,0,.3-.5.7-1,1-1.5,0,0,.1,0,.2,0h3.2c.1,0,.3,0,.4.2-.3.5-.6,1-1,1.4h0Z"/>
        <path class="cls-1" d="M97.1,25.5h-3.5v-1.7c0,0,.2,0,.3,0h2.8c.1,0,.2,0,.3,0v1.7h0Z"/>
        <path class="cls-1" d="M137.2,8.7c0-.1-.2-.1-.3-.1h-3.1c-.1,0-.2,0-.3,0,.3-.5.6-1,1-1.5.1,0,.2,0,.3,0h3.5c-.4.5-.7,1.1-1.1,1.6h0Z"/>
        <path class="cls-1" d="M115.4,31c-.1,0-.2,0-.3,0h-5.4c-.1,0-.3,0-.4-.1.8-.2,1.5-.6,2.2-1,.6,0,1.2,0,1.8,0h2.6c.1,0,.3,0,.4,0-.2.4-.6.7-.9,1.1h0Z"/>
        <path class="cls-1" d="M97.1,23.8h-3.5v-1.6h3.5v1.6Z"/>
        <path class="cls-1" d="M93.6,9h3.5v1.6h-3.5v-1.6Z"/>
        <path class="cls-1" d="M113.7,7.5c.2,0,.3,0,.4,0h3.4c.2.5.3.9.4,1.4,0,.1-.2.1-.3.1h-3c0,0-.2,0-.3,0-.2-.5-.4-1-.6-1.4Z"/>
        <path class="cls-1" d="M97.1,20.4h-3.5v-1.5h3.5v1.5Z"/>
        <path class="cls-1" d="M128.5,21.6c-.1,0-.2,0-.3,0h-3.5c.3-.5.6-1,1-1.5,0,0,0,0,.2,0,.8,0,1.7,0,2.6,0,0,0,.1,0,.2,0,0,0,0,0,0,0,.4.5.3,1,0,1.5h0Z"/>
        <path class="cls-1" d="M118.1,25.1h-3.6c0-.5.1-.9.2-1.4,0,0,.1-.1.2-.1h3.1c.1,0,.2,0,.2.2,0,.1,0,.2,0,.3,0,0,0,.2,0,.2,0,.3,0,.5,0,.8h0Z"/>
        <path class="cls-1" d="M93.6,12.5h3.5v1.5c0,0-.2,0-.3,0h-2.8c-.1,0-.2,0-.3,0v-1.5h0Z"/>
        <path class="cls-1" d="M68.1,31.4c-.2.2-.3.4-.4.6,0,.1-.2,0-.3,0h-7.5c.2-.2.3-.4.4-.6,0-.1.2,0,.3,0h7.5,0Z"/>
        <path class="cls-1" d="M118.3,11.6h-3.5s0,0,0,0c0-.1,0-.2,0-.3v-1.1c0-.1,0,0,.2,0h2.9c.1,0,.2,0,.3,0,0,.5.1.9.1,1.4h0Z"/>
        <path class="cls-1" d="M97.1,31.9h-3.5v-1.4c0,0,.2,0,.3,0h2.8c.1,0,.2,0,.3,0v1.4h0Z"/>
        <path class="cls-1" d="M25,32.1h-3.3c-.2,0-.2,0-.2-.2q0-.5.5-.5h6.2c.2,0,.3,0,.3.3,0,.4,0,.4-.5.4h-3Z"/>
        <path class="cls-1" d="M3.5,31.4h3.3c.2,0,.2,0,.2.2,0,.5,0,.5-.5.5-2.1,0-4.1,0-6.2,0-.2,0-.3,0-.3-.3,0-.5,0-.5.5-.5h3,0Z"/>
        <path class="cls-1" d="M80.2,31.4h7.3c.2,0,.4,0,.5.3,0,.1.2.2.2.3-.1,0-.2,0-.3,0h-4.1c-1,0-1.9,0-2.9,0-.2,0-.4,0-.5-.3,0-.1-.2-.2-.3-.4h0Z"/>
        <path class="cls-1" d="M118.2,10.1h-3.5c0-.4-.2-.8-.3-1.2h3.3c.1,0,.2,0,.3,0,0,.4.2.8.2,1.3Z"/>
        <path class="cls-1" d="M116.3,29.9h-4.3c-.2,0-.3,0-.5-.1.3-.3.7-.5,1-.8h3.9c.1,0,.2,0,.3,0-.2.3-.3.6-.6.9Z"/>
        <path class="cls-1" d="M118.2,31.1c0,0,.2,0,.3,0h3.2c0,0,.2,0,.3.1-.2.3-.4.7-.7,1,0,0-.2,0-.3,0h-3.2c-.1,0-.3,0-.4,0,.2-.4.5-.7.8-1.1h0Z"/>
        <path class="cls-1" d="M93.6,13.9h3.5v1.2h-3.5v-1.2Z"/>
        <path class="cls-1" d="M130.4,14.1c.1,0,.3,0,.4,0h2.3c.1,0,.3,0,.4,0-.5.7-1,1.5-1.5,2.2,0,0,0,.2-.2,0-.5-.8-1-1.5-1.5-2.2h0Z"/>
        <path class="cls-1" d="M97.1,30.4h-3.5v-1.1h3.5v1.1Z"/>
        <path class="cls-1" d="M128.5,20c-1,0-1.9,0-2.9,0,.5-.7.9-1.4,1.4-2.1.5.7,1,1.4,1.4,2.1Z"/>
        <path class="cls-1" d="M117.4,32.3h3.5c.1,0,.2,0,.3,0,0,.2-.2.4-.3.5,0-.1-.2-.1-.3-.1h-3.5c.1-.2.2-.3.3-.5Z"/>
        <path class="cls-1" d="M98,3.6h7.6c0,0,.2,0,.3,0h-7.3c-.2,0-.4,0-.6,0h0Z"/>
        <path class="cls-1" d="M106.3,3.6c.1,0,.2,0,.3,0-.1,0-.2,0-.3,0Z"/>
        <path class="cls-1" d="M114.8,11.2c0,.1,0,.2,0,.3,0-.1,0-.2,0-.3Z"/>
        <path class="cls-1" d="M118.2,24.4c0,0,0-.2,0-.2,0,0,0,.2,0,.2Z"/>
        <path class="cls-1" d="M118.3,19.9v1.7h-3.4v-1.7c0,0,.2,0,.3,0h2.8c.1,0,.2,0,.3,0Z"/>
        <path class="cls-1" d="M118.3,15v2.8c0,0-.2,0-.3,0h-2.8c-.1,0-.2,0-.3,0v-2.8c0,0,.2,0,.3,0h2.8c.1,0,.2,0,.3,0Z"/>
        <path class="cls-1" d="M114.9,17.8h3.4v2h-3.4v-2Z"/>
        <path class="cls-1" d="M118.3,15h-3.4v-1.5c0-.2,0-.2.2-.2h3c.2,0,.2,0,.2.2,0,.5,0,1,0,1.5h0Z"/>
      </g>
    </g>
  </g>
</svg>