<?xml version="1.0" encoding="UTF-8"?><svg id="katman_1" xmlns="http://www.w3.org/2000/svg" viewBox="0 0 143.29 34.96"><defs><style>.cls-1{fill:#13b1cc;}.cls-2{fill:#2498c8;}.cls-3{fill:#2a8ec6;}.cls-4{fill:#0dbacd;}.cls-5{fill:#0cbccd;}.cls-6{fill:#229ac8;}.cls-7{fill:#08c1ce;}.cls-8{fill:#1ba5ca;}.cls-9{fill:#02cad0;}.cls-10{fill:#2793c7;}.cls-11{fill:#02cbd0;}.cls-12{fill:#2694c7;}.cls-13{fill:#2596c7;}.cls-14{fill:#1aa6ca;}.cls-15{fill:#05c6cf;}.cls-16{fill:#06c4cf;}.cls-17{fill:#1da1c9;}.cls-18{fill:#219cc8;}.cls-19{fill:#0abece;}.cls-20{fill:#1f9ec9;}.cls-21{fill:#2c8cc6;}.cls-22{fill:#19a8ca;}.cls-23{fill:#09c0ce;}.cls-24{fill:#209dc8;}.cls-25{fill:#2c8bc5;}.cls-26{fill:#06c5cf;}.cls-27{fill:#10b5cc;}.cls-28{fill:#01cbd0;}.cls-29{fill:#12b2cc;}.cls-30{fill:#18a9ca;}.cls-31{fill:#10b6cc;}.cls-32{fill:#15aecb;}.cls-33{fill:#1ca3c9;}.cls-34{fill:#1b1464;}.cls-35{fill:#2d8ac5;}.cls-36{fill:#229bc8;}.cls-37{fill:#04c8cf;}.cls-38{fill:#219bc8;}.cls-39{fill:#0bbdce;}.cls-40{fill:#298fc6;}.cls-41{fill:#0eb9cd;}.cls-42{fill:#03c8cf;}.cls-43{fill:#0fb6cc;}.cls-44{fill:#14afcb;}.cls-45{fill:#2b8dc6;}.cls-46{fill:#1c1564;}.cls-47{fill:#1da2c9;}.cls-48{fill:#2595c7;}.cls-49{fill:#2695c7;}.cls-50{fill:#14b0cb;}.cls-51{fill:#2892c7;}.cls-52{fill:#12b3cc;}.cls-53{fill:#18a8ca;}.cls-54{fill:#16accb;}.cls-55{fill:#209ec9;}.cls-56{fill:#1ba4ca;}.cls-57{fill:#2497c8;}.cls-58{fill:#2891c6;}</style></defs><path class="cls-34" d="M46.5,30.76c-3.76,0-7.52,0-11.28,0-.24,0-.41-.07-.57-.25-1.5-1.67-2.45-3.62-3-5.78-.39-1.53-.56-3.08-.57-4.65,0-1.76-.03-3.53.02-5.29.09-2.73.61-5.36,1.89-7.8,1.78-3.39,4.59-5.48,8.27-6.41,2.63-.67,5.3-.79,7.97-.24,3.55.72,6.22,2.7,8.08,5.78,1.19,1.97,1.88,4.13,2.3,6.39.46,2.48.47,4.99.45,7.5,0,.13-.04.19-.17.18-.05,0-.1,0-.15,0-6.8,0-13.6,0-20.4,0-.25,0-.33-.04-.32-.31.02-1.58,0-3.15,0-4.73q0-.34.33-.34c4.59,0,9.19,0,13.78,0,.25,0,.29-.07.27-.3-.17-1.68-.5-3.31-1.32-4.81-1.37-2.54-3.52-3.73-6.39-3.64-1.39.04-2.73.3-3.96.99-1.78,1-2.86,2.55-3.46,4.46-.36,1.15-.53,2.34-.52,3.55.01,1.65.03,3.31,0,4.96-.03,1.42.19,2.78.75,4.08.91,2.08,2.49,3.44,4.66,4.03,4.17,1.14,7.91.25,11.23-2.49.14-.12.2-.12.34.01,1.4,1.35,2.81,2.7,4.23,4.04.16.15.18.23,0,.39-.77.67-.76.68-1.77.68h-10.67Z"/><path class="cls-34" d="M8.26,8.75c0-.14,0-.2,0-.27,0-1.56,0-3.12,0-4.68,0-.16.05-.27.15-.38C10.45,1.35,12.91.18,15.83.04c1.98-.09,3.91.15,5.75.91,2.57,1.06,4.36,2.92,5.52,5.42.73,1.58,1.1,3.24,1.28,4.96.11,1.01.12,2.03.12,3.04,0,5.36,0,10.71,0,16.07,0,.26-.07.32-.32.32-2.13-.01-4.26-.01-6.39,0-.23,0-.28-.07-.28-.28,0-5.59,0-11.17,0-16.76,0-1.09-.15-2.16-.55-3.19-.72-1.85-2.01-3.12-3.91-3.71-2.14-.67-4.29-.63-6.41.16-.94.35-1.72.94-2.4,1.77Z"/><path class="cls-34" d="M87.44,30.76h-.3c-2.36,0-4.72,0-7.08,0-.18,0-.29-.06-.39-.21-1.62-2.37-3.25-4.73-4.87-7.1-4.35-6.36-8.84-12.63-13.27-18.94-.89-1.26-1.78-2.52-2.67-3.78-.04-.06-.08-.12-.15-.23.11,0,.18,0,.25,0,2.43,0,4.86,0,7.28,0,.17,0,.27.05.37.19,2.38,3.56,4.76,7.13,7.15,10.68,1.44,2.14,2.87,4.28,4.36,6.38,3.02,4.26,6.08,8.48,9.12,12.72.05.07.11.15.19.28Z"/><path class="cls-34" d="M6.99,15.63c0,4.95,0,9.9,0,14.85,0,.24-.06.29-.29.29-2.15,0-4.3,0-6.44,0-.19,0-.26-.03-.26-.24,0-9.93,0-19.85,0-29.78,0-.2.05-.23.24-.23,2.16,0,4.33,0,6.49,0,.22,0,.25.07.25.27,0,4.95,0,9.9,0,14.85Z"/><path class="cls-34" d="M78.69,16.34c-1.21-1.76-2.39-3.49-3.57-5.21-.09-.13-.05-.2.02-.31,1.56-2.42,3.12-4.84,4.68-7.26.62-.96,1.24-1.92,1.85-2.88.07-.12.15-.18.3-.18,2.48,0,4.96,0,7.44,0,.03,0,.07,0,.15,0-3.63,5.28-7.24,10.54-10.86,15.82Z"/><path class="cls-34" d="M60.82,30.75c2.97-4.16,5.92-8.28,8.88-12.42.82,1.18,1.62,2.34,2.43,3.49.43.61.85,1.23,1.28,1.83.09.13.11.21,0,.35-1.57,2.19-3.14,4.38-4.71,6.57-.08.11-.15.2-.32.2-2.47,0-4.94,0-7.41,0-.03,0-.07,0-.15-.01Z"/><path class="cls-21" d="M97.97,2.66c0-.68,0-1.36-.01-2.03,0-.12.03-.18.16-.16.02,0,.03,0,.05,0,2.66,0,5.33-.03,7.99.03,2.22.05,4.38.44,6.41,1.39.44.2.87.42,1.26.71-.05.11-.15.13-.25.14-.1.01-.2,0-.31,0-4.94,0-9.87,0-14.81,0-.17,0-.34.04-.49-.08Z"/><path class="cls-9" d="M113.3,32.61c-1.36.79-2.84,1.25-4.38,1.53-1.42.26-2.85.33-4.28.34-2.14,0-4.28,0-6.42,0-.21,0-.28-.05-.27-.26.02-.58.01-1.17.02-1.75.14-.12.31-.08.46-.08,3.06,0,6.11,0,9.17,0,1.7,0,3.4,0,5.09,0,.14,0,.29-.01.43.03.09.03.22.04.17.19Z"/><path class="cls-34" d="M37.86,32.95h16.88c-2.42,1.21-4.93,1.94-7.62,2-3.24.07-6.37-.39-9.26-2Z"/><path class="cls-37" d="M113.3,32.61c-.04-.14-.17-.12-.27-.14-.07-.01-.15,0-.23,0-4.94,0-9.89,0-14.83,0,0-.32,0-.64-.01-.97,0-.15.05-.19.19-.19.42,0,.83,0,1.25,0,1.88,0,3.75,0,5.63,0,1.46,0,2.89-.16,4.3-.53.2.02.41.02.61.02,1.69,0,3.38,0,5.07,0,.16,0,.35-.05.46.14-.65.65-1.32,1.26-2.16,1.66Z"/><path class="cls-3" d="M97.97,2.66c5.15,0,10.31,0,15.46,0,.13,0,.27.02.4-.06.69.42,1.29.93,1.81,1.54-.11.17-.28.13-.44.13-1.64,0-3.27,0-4.91,0-.19,0-.37-.02-.56.01-1-.32-2.02-.5-3.06-.62-.1-.04-.21.01-.32-.04-.17,0-.33-.01-.5-.02-.09-.02-.19-.01-.28-.01-2.44,0-4.88,0-7.32,0-.09,0-.19.02-.27-.02-.05-.3-.02-.61-.01-.92Z"/><path class="cls-34" d="M35.55,31.41h21.74c-.35.23-.64.43-.93.62-.04.03-.09.04-.14.04-.05,0-.1,0-.15,0-5.94,0-11.88.01-17.82.02-.51,0-1.02,0-1.53.02-.22,0-.39-.05-.55-.19-.18-.16-.38-.31-.61-.5Z"/><path class="cls-34" d="M81.27,32.88c.48,0,.9,0,1.33,0,2.05,0,4.09,0,6.14,0,.17,0,.28.06.37.2.32.46.64.91.97,1.36-.09.07-.18.04-.26.04-2.4,0-4.8,0-7.21,0-.18,0-.29-.06-.39-.21-.29-.45-.6-.89-.95-1.39Z"/><path class="cls-34" d="M67.02,32.91c-.37.52-.72,1-1.06,1.48-.05.07-.12.08-.2.08-2.51,0-5.02,0-7.53,0,0,0-.01,0-.05-.03.28-.39.58-.78.84-1.19.16-.26.36-.33.66-.33,2.33,0,4.66,0,7,0,.09,0,.19,0,.34,0Z"/><path class="cls-34" d="M24.99,34.47c-1.07,0-2.14,0-3.21,0-.22,0-.27-.07-.26-.27.02-.31.02-.63,0-.94-.02-.24.04-.31.3-.31,1.16.02,2.32,0,3.49,0,.99,0,1.98,0,2.98-.02.18,0,.24.04.23.22-.01.35-.02.7,0,1.04.01.21-.05.27-.26.27-1.09-.01-2.17,0-3.26,0Z"/><path class="cls-34" d="M3.5,34.47c-1.09,0-2.17,0-3.26,0-.19,0-.24-.05-.24-.24.02-.36.01-.71,0-1.07,0-.16.05-.2.2-.19.7,0,1.41,0,2.11,0,1.46,0,2.92,0,4.38-.02.26,0,.31.07.29.31-.02.32-.02.64,0,.97,0,.19-.04.24-.23.24-1.09-.01-2.17,0-3.26,0Z"/><path class="cls-9" d="M97.09,31.85c0,.82,0,1.64.01,2.46,0,.12-.04.16-.16.16-1.07,0-2.14,0-3.21,0-.12,0-.16-.04-.16-.16,0-.82,0-1.64.01-2.46.1-.09.22-.08.34-.08.94,0,1.89,0,2.83,0,.12,0,.24-.01.33.08Z"/><path class="cls-21" d="M117.88,2.91c-.55-.8-1.11-1.6-1.66-2.39.04-.09.11-.06.16-.06,1.17,0,2.34,0,3.51,0,.11,0,.21,0,.28.12.5.75,1,1.49,1.5,2.23-.12.11-.27.08-.41.08-1.11.01-2.21-.02-3.32.02-.03,0-.05,0-.08,0Z"/><path class="cls-40" d="M97.09,2.61c0,.85,0,1.7,0,2.54-.1.09-.22.08-.34.08-.95,0-1.89,0-2.84,0-.12,0-.24,0-.34-.08,0-.85,0-1.7,0-2.54.1-.09.22-.08.34-.08.94,0,1.89,0,2.83,0,.12,0,.24-.01.33.08Z"/><path class="cls-27" d="M128.49,21.59c-.5.74-1,1.49-1.5,2.23-.03.04-.06.08-.1.12-.2-.04-.4-.04-.61-.04-.91,0-1.83,0-2.74,0-.15,0-.31.02-.42-.13.49-.76.99-1.51,1.52-2.24.11-.07.24-.08.36-.08,1.02,0,2.05,0,3.07,0,.15,0,.31-.03.41.14Z"/><path class="cls-51" d="M109.73,4.28c.07-.14.21-.09.32-.09,1.76,0,3.51,0,5.27,0,.11,0,.22.01.32-.05.51.53.92,1.13,1.26,1.78-.11.11-.25.08-.39.08-1.07,0-2.15,0-3.22,0-.22,0-.44,0-.66.03-.85-.78-1.82-1.35-2.9-1.74Z"/><path class="cls-23" d="M117.73,26.93c-.19.73-.47,1.43-.86,2.08-.09.02-.18.03-.28.03-1.2,0-2.41,0-3.61,0-.14,0-.29.03-.41-.08.61-.63,1.09-1.35,1.47-2.14.09-.07.2-.08.31-.08,1,0,1.99,0,2.99,0,.15,0,.34-.03.38.19Z"/><path class="cls-4" d="M123.14,23.77c.12.04.25.05.37.05,1.04,0,2.09,0,3.13,0,.1,0,.23-.06.26.11-.44.66-.88,1.33-1.33,1.99-.05.07-.1.13-.15.2-.2-.04-.4-.04-.61-.04-.92,0-1.85,0-2.77,0-.14,0-.3.03-.38-.13.49-.73.99-1.46,1.48-2.19Z"/><path class="cls-47" d="M130.39,14.06q-.38-.48-.04-.99c.27-.39.53-.77.8-1.16.1-.06.2-.08.32-.08,1.04,0,2.09,0,3.13,0,.14,0,.33-.04.35.19-.43.69-.89,1.36-1.37,2.03-.16.07-.32.02-.48.02-.84,0-1.68-.01-2.52.01-.07,0-.14,0-.2-.04Z"/><path class="cls-13" d="M123.94,6.12c.47.65.92,1.31,1.35,1.98-.09.11-.22.13-.34.13-1.1.01-2.2,0-3.3,0-.05,0-.1-.02-.15-.02-.47-.67-.96-1.33-1.39-2.03.08-.09.2-.08.31-.08,1.12,0,2.23,0,3.35,0,.06,0,.12,0,.17.04Z"/><path class="cls-4" d="M133.56,25.87c-.47-.62-.91-1.27-1.32-1.93.01-.2.17-.19.3-.19.4-.01.8,0,1.19,0,.63,0,1.27,0,1.9,0,.13,0,.27-.01.39.08.47.65.93,1.31,1.36,1.99-.07.07-.17.08-.26.08-1.15,0-2.29,0-3.44,0-.04,0-.08-.01-.13-.02Z"/><path class="cls-25" d="M97.09,2.61c-1.17,0-2.34,0-3.5,0,0-.66,0-1.32-.01-1.98,0-.14.05-.17.18-.17,1.06,0,2.12,0,3.17,0,.13,0,.18.03.18.17,0,.66,0,1.32-.01,1.98Z"/><path class="cls-31" d="M114.78,23.76c.02-.34.04-.68.06-1.02.02-.33,0-.66,0-.99,0-.08-.03-.17.03-.25.08-.06.18-.06.27-.06.97,0,1.95,0,2.92,0,.09,0,.19,0,.27.07.05.45.04.89,0,1.34,0,.33.02.65-.05.97-.13-.05-.25-.08-.39-.08-.91,0-1.82,0-2.74,0-.13,0-.25.04-.38.02Z"/><path class="cls-11" d="M142.02,32.57c.41.59.82,1.18,1.23,1.77.09.12.02.14-.09.14-1.2,0-2.41,0-3.61,0-.07,0-.13-.02-.17-.08-.37-.56-.78-1.09-1.12-1.67-.05-.12.04-.15.12-.17.09-.03.18-.02.28-.02,1.03,0,2.06,0,3.09,0,.09,0,.19,0,.27.03Z"/><path class="cls-49" d="M93.58,5.15h3.51c0,.7,0,1.39,0,2.09-.1.09-.22.08-.34.08-.95,0-1.89,0-2.84,0-.12,0-.24,0-.34-.08,0-.7,0-1.39,0-2.09Z"/><path class="cls-19" d="M97.09,25.45c0,.7,0,1.39,0,2.09-.1.09-.22.08-.34.08-.95,0-1.89,0-2.84,0-.12,0-.24,0-.34-.08,0-.7,0-1.39,0-2.09.1-.09.22-.08.34-.08.95,0,1.89,0,2.84,0,.12,0,.24,0,.34.08Z"/><path class="cls-17" d="M125.14,13.55c-.46-.63-.91-1.27-1.32-1.94.08-.09.2-.08.31-.08,1.1,0,2.2,0,3.3-.01.06,0,.12,0,.17.04.46.63.9,1.28,1.32,1.93-.1.09-.22.08-.34.08-1.09.01-2.19-.01-3.28.01-.06,0-.12,0-.17-.04Z"/><path class="cls-22" d="M130.01,15.07c.45.61.88,1.24,1.29,1.88-.11.11-.25.09-.38.09-.8,0-1.6,0-2.41,0-.32,0-.64,0-.96.03-.45-.61-.88-1.23-1.28-1.87,0-.14.1-.16.2-.18.11-.03.22-.02.33-.02.93,0,1.86,0,2.79,0,.14,0,.29,0,.42.08Z"/><path class="cls-7" d="M138.46,27.38c.45.61.88,1.24,1.28,1.88-.11.11-.25.08-.38.08-.83,0-1.66,0-2.49,0-.3,0-.61,0-.91.03-.47-.63-.92-1.27-1.33-1.94.08-.08.18-.08.28-.08,1.12,0,2.23,0,3.35,0,.07,0,.13.01.2.03Z"/><path class="cls-12" d="M134.43,7.08c.39-.62.8-1.23,1.23-1.83.07-.03.15-.03.22-.03,1.06,0,2.12,0,3.17,0,.14,0,.32-.05.37.17-.39.58-.74,1.19-1.16,1.74-.11.06-.24.08-.37.08-1.03,0-2.06,0-3.09,0-.14,0-.29.02-.38-.14Z"/><path class="cls-17" d="M118.34,22.85c0-.44,0-.88-.01-1.32-.07-.08-.07-.19-.07-.29,0-.46,0-.93,0-1.39-.01-.68-.01-1.36,0-2.04-.01-.93-.01-1.86,0-2.79-.01-.45,0-.9,0-1.35,0-.29-.02-.31-.3-.31-.9,0-1.8,0-2.7,0-.28,0-.3.02-.3.31,0,.45,0,.9,0,1.35.01.93.01,1.86,0,2.79,0,.68.01,1.36,0,2.04.01.46,0,.93,0,1.39,0,.1,0,.2-.08.29-.02.4.04.81-.04,1.21,0-.11-.01-.22-.01-.33,0-3.33,0-6.66,0-9.99,0-.29,0-.58,0-.86.1-.09.22-.08.34-.08.94,0,1.89,0,2.83,0,.12,0,.24-.01.33.08.01.32.04.64.04.96,0,3.34,0,6.69,0,10.03,0,.1.03.2-.03.3Z"/><path class="cls-52" d="M133.69,20.4c.43.6.86,1.21,1.26,1.84-.07.11-.18.13-.29.13-1.11.01-2.22,0-3.33,0-.05,0-.1-.02-.15-.03-.44-.62-.89-1.23-1.28-1.88.08-.09.18-.08.28-.08,1.12,0,2.25,0,3.37,0,.05,0,.1.01.15.03Z"/><path class="cls-44" d="M133.69,20.4c-.11.07-.23.06-.34.06-1.15,0-2.3,0-3.45,0-.43-.58-.84-1.16-1.22-1.77.06-.2.23-.14.36-.14.86,0,1.71,0,2.57,0,.27,0,.54-.04.81.02.43.6.88,1.2,1.27,1.83Z"/><path class="cls-40" d="M117.88,2.91c.04-.17.18-.1.27-.1,1.18,0,2.36,0,3.53,0,.4.59.81,1.18,1.21,1.77-.11.11-.25.09-.38.09-.81,0-1.63,0-2.44,0-.32,0-.64,0-.97.03-.43-.58-.84-1.17-1.22-1.79Z"/><path class="cls-7" d="M124.25,27.85c-.37.59-.76,1.17-1.17,1.73-1.16.03-2.32,0-3.48,0-.12,0-.24,0-.31-.13.37-.59.76-1.17,1.17-1.73.09-.07.2-.08.32-.08,1.04,0,2.08,0,3.13,0,.14,0,.33-.04.35.19Z"/><path class="cls-55" d="M134.95,12.03c-.06-.15-.19-.11-.31-.11-1.16,0-2.33,0-3.49,0,.4-.62.8-1.23,1.24-1.83.06-.04.13-.04.2-.04,1.09.02,2.19,0,3.28.01.12,0,.26-.02.36.09-.4.59-.79,1.18-1.19,1.77-.03.04-.06.08-.1.12Z"/><path class="cls-28" d="M120.89,32.83c-.32.49-.65.97-.97,1.46-.09.14-.18.19-.35.19-1.14,0-2.29,0-3.43,0-.06,0-.15.03-.19-.03-.04-.07.04-.12.07-.17.35-.52.7-1.03,1.06-1.55.1-.08.22-.08.34-.08,1.03,0,2.06,0,3.09,0,.14,0,.34-.05.38.19Z"/><path class="cls-24" d="M127.61,11.56c-.14.04-.28.05-.43.05-1.12,0-2.24,0-3.36,0-.42-.54-.79-1.11-1.16-1.69.05-.19.21-.17.35-.18.49-.01.98,0,1.47,0,.54,0,1.08,0,1.62,0,.13,0,.25,0,.36.08.4.56.8,1.12,1.14,1.73Z"/><path class="cls-53" d="M93.58,17.05v-1.93c.1-.09.22-.08.34-.08.95,0,1.89,0,2.84,0,.12,0,.24,0,.34.08,0,.64,0,1.29,0,1.93-.1.09-.22.08-.34.08-.95,0-1.89,0-2.84,0-.12,0-.24,0-.34-.08Z"/><path class="cls-16" d="M135.96,29.37c.06-.15.19-.11.31-.11,1.16,0,2.32,0,3.48,0,.42.56.81,1.15,1.19,1.73-.11.1-.25.08-.39.08-.85,0-1.71,0-2.56,0-.29,0-.57,0-.86.02-.4-.57-.82-1.12-1.18-1.72Z"/><path class="cls-19" d="M124.25,27.85c-.06-.15-.19-.11-.31-.11-1.16,0-2.32,0-3.48,0,.38-.61.78-1.19,1.19-1.77.1.07.21.05.32.05,1.06,0,2.12,0,3.18,0,.1,0,.23-.06.26.11-.33.5-.67,1.01-1,1.51-.05.08-.11.15-.17.22Z"/><path class="cls-20" d="M93.58,12.48c0-.63,0-1.25,0-1.88.1-.09.22-.08.34-.08.95,0,1.89,0,2.84,0,.12,0,.24,0,.34.08,0,.63,0,1.25,0,1.88-.1.09-.22.08-.34.08-.95,0-1.89,0-2.84,0-.12,0-.24,0-.34-.08Z"/><path class="cls-6" d="M126.47,9.83c-1.15,0-2.3,0-3.45,0-.13,0-.26-.01-.35.1-.4-.57-.82-1.12-1.18-1.72.07-.09.17-.05.26-.05.92,0,1.83,0,2.75,0,.26,0,.53.02.78-.06.4.58.79,1.16,1.19,1.74Z"/><path class="cls-26" d="M119.29,29.46c.11.07.23.06.34.06,1.06,0,2.11,0,3.17,0,.1,0,.21-.04.28.07-.33.5-.66,1-.99,1.49-.06.08-.12.16-.18.24-.17-.04-.34-.04-.5-.04-.96,0-1.92,0-2.87,0-.14,0-.3.04-.38-.13.38-.56.76-1.12,1.14-1.69Z"/><path class="cls-54" d="M132.42,18.57c-.11.07-.23.06-.34.06-1.04,0-2.08,0-3.11,0-.1,0-.21-.04-.28.06-.39-.53-.78-1.07-1.12-1.63.1-.13.24-.11.37-.11,1.13,0,2.25,0,3.38,0,.37.54.74,1.08,1.11,1.63Z"/><path class="cls-54" d="M93.58,17.05h3.51c0,.61,0,1.22,0,1.83-.1.09-.22.08-.34.08-.95,0-1.89,0-2.84,0-.12,0-.24,0-.34-.08,0-.61,0-1.22,0-1.83Z"/><path class="cls-7" d="M93.58,27.53h3.51c0,.61,0,1.22,0,1.83-.1.09-.22.08-.34.08-.95,0-1.89,0-2.84,0-.12,0-.24,0-.34-.08,0-.61,0-1.22,0-1.83Z"/><path class="cls-35" d="M137.83,2.04c.33-.49.66-.99.98-1.48.05-.07.1-.1.19-.1,1.25,0,2.49,0,3.79,0-.41.59-.79,1.15-1.17,1.7-.62.04-1.23.01-1.85.02-.5,0-1,0-1.5,0-.16,0-.33,0-.44-.13Z"/><path class="cls-37" d="M137.13,31.09c.07-.14.2-.1.31-.1,1.16,0,2.33,0,3.49,0,.36.53.72,1.05,1.08,1.58-.1.07-.21.05-.32.05-1.06,0-2.12,0-3.18,0-.1,0-.23-.06-.27.11-.4-.53-.77-1.07-1.12-1.63Z"/><path class="cls-39" d="M138.46,27.38c-.1.06-.21.05-.32.05-1.17,0-2.34,0-3.51,0-.37-.51-.75-1.02-1.07-1.56.07-.1.17-.06.26-.06,1.19,0,2.38,0,3.57,0,.38.51.74,1.04,1.08,1.57Z"/><path class="cls-58" d="M139.43,5.4c-.07-.13-.19-.09-.29-.09-1.05,0-2.1,0-3.15,0-.11,0-.22.01-.32-.05.33-.54.69-1.06,1.07-1.58.11-.08.24-.08.36-.08,1.02,0,2.05,0,3.07,0,.15,0,.31-.03.41.14-.31.46-.62.93-.93,1.39-.06.1-.11.21-.21.27Z"/><path class="cls-48" d="M112.63,6.02c.06-.15.19-.11.31-.11,1.32,0,2.64,0,3.96,0,.28.49.5.99.67,1.53-.1.09-.22.08-.33.08-1.11.01-2.21-.01-3.32.01-.06,0-.12,0-.17-.04-.33-.52-.7-1.01-1.11-1.47Z"/><path class="cls-2" d="M93.58,7.24h3.51c0,.59,0,1.19,0,1.78-.1.09-.22.08-.34.08-.95,0-1.89,0-2.84,0-.12,0-.24,0-.34-.08,0-.59,0-1.19,0-1.78Z"/><path class="cls-29" d="M93.58,22.19c0-.59,0-1.19,0-1.78.1-.09.22-.08.34-.08.95,0,1.89,0,2.84,0,.12,0,.24,0,.34.08,0,.59,0,1.19,0,1.78-.1.09-.22.08-.34.08-.95,0-1.89,0-2.84,0-.12,0-.24,0-.34-.08Z"/><path class="cls-45" d="M140.57,3.73c-.11-.07-.23-.06-.34-.06-1.16,0-2.33,0-3.49,0,.35-.56.72-1.1,1.11-1.63.46.1.93.05,1.39.05.71,0,1.43,0,2.14,0,.09,0,.19-.03.26.06-.35.52-.71,1.05-1.06,1.57Z"/><path class="cls-10" d="M119.1,4.7c.1-.13.24-.11.37-.11,1.14,0,2.28,0,3.42,0,.37.5.72,1.01,1.04,1.53-.13.04-.26.05-.4.05-1.14,0-2.29,0-3.43,0-.37-.47-.7-.97-1.01-1.47Z"/><path class="cls-5" d="M117.73,26.93c-.09-.13-.23-.11-.37-.11-1.11,0-2.21,0-3.32,0,.21-.55.4-1.1.53-1.67.1-.09.22-.08.33-.08.96,0,1.93,0,2.89,0,.12,0,.24-.01.33.08-.13.6-.18,1.21-.4,1.79Z"/><path class="cls-8" d="M130.01,15.07c-1.12,0-2.25,0-3.37,0-.13,0-.27-.02-.36.12-.41-.52-.78-1.07-1.13-1.64.15-.05.29-.06.45-.06,1.11,0,2.23,0,3.34,0,.38.51.74,1.04,1.08,1.57Z"/><path class="cls-31" d="M131.17,22.34c.07-.09.17-.05.26-.05,1.03,0,2.05,0,3.08,0,.15,0,.29,0,.43-.05.38.51.74,1.04,1.08,1.57-1.16,0-2.32,0-3.48,0-.11,0-.24-.03-.31.11-.4-.5-.74-1.04-1.06-1.59Z"/><path class="cls-36" d="M136.23,10.14c-1.14,0-2.27,0-3.41,0-.15,0-.29,0-.43-.05.32-.52.67-1.03,1.03-1.52.07-.03.15-.03.22-.03,1.06,0,2.13,0,3.19,0,.14,0,.32-.04.35.19-.3.49-.62.96-.96,1.42Z"/><path class="cls-41" d="M97.09,25.45h-3.51c0-.56,0-1.12,0-1.68.1-.09.22-.08.34-.08.95,0,1.89,0,2.84,0,.12,0,.24,0,.34.08,0,.56,0,1.12,0,1.68Z"/><path class="cls-57" d="M137.19,8.72c-.06-.15-.19-.11-.31-.11-1.05,0-2.09,0-3.14,0-.11,0-.22.02-.32-.05.32-.51.65-1,1-1.48.11.07.23.05.34.05,1.16,0,2.33,0,3.49,0-.36.53-.71,1.06-1.07,1.58Z"/><path class="cls-16" d="M115.45,30.95c-.11-.07-.23-.06-.34-.06-1.8,0-3.61,0-5.41,0-.14,0-.27,0-.38-.11.79-.25,1.53-.61,2.24-1.02.58.03,1.17.02,1.75.02.87,0,1.74,0,2.62,0,.13,0,.27-.03.39.08-.24.39-.56.73-.86,1.07Z"/><path class="cls-43" d="M97.09,23.77h-3.51c0-.53,0-1.05,0-1.58h3.51c0,.53,0,1.05,0,1.58Z"/><path class="cls-18" d="M93.58,9.02h3.51c0,.53,0,1.05,0,1.58-1.17,0-2.34,0-3.51,0,0-.53,0-1.05,0-1.58Z"/><path class="cls-2" d="M113.74,7.5c.15-.05.3-.06.45-.06,1.13,0,2.25,0,3.38,0,.18.46.32.94.41,1.43-.07.13-.19.13-.31.13-1.01,0-2.02,0-3.03,0-.1,0-.2-.02-.29-.07-.17-.49-.38-.96-.61-1.43Z"/><path class="cls-50" d="M97.09,20.41h-3.51c0-.51,0-1.02,0-1.53h3.51c0,.51,0,1.02,0,1.53Z"/><path class="cls-29" d="M128.49,21.59c-.11-.06-.23-.06-.34-.06-1.17,0-2.33,0-3.5,0,.32-.5.63-1,.99-1.47.05-.04.1-.05.17-.05.85.04,1.7.03,2.56,0,.06,0,.12.02.17.04,0,0,.02,0,.02.01q.55.74-.06,1.52Z"/><path class="cls-41" d="M118.14,25.14c-1.19,0-2.37,0-3.56,0,.07-.46.14-.92.21-1.38.06-.09.14-.1.24-.1,1.02,0,2.03,0,3.05,0,.12,0,.23,0,.22.16,0,.1-.01.2-.02.3-.04.08.01.18-.04.25,0,.26-.03.51-.1.76Z"/><path class="cls-33" d="M93.58,12.48h3.51v1.48c-.1.09-.22.08-.34.08-.95,0-1.89,0-2.84,0-.12,0-.24,0-.34-.08v-1.48Z"/><path class="cls-34" d="M68.1,31.4c-.16.22-.29.39-.41.58-.08.12-.19.08-.3.08-2.32,0-4.65,0-6.97,0h-.53c.15-.21.29-.39.41-.58.07-.11.18-.08.28-.08,2.27,0,4.55,0,6.82,0h.71Z"/><path class="cls-24" d="M118.33,11.56c-1.17,0-2.34,0-3.5,0,0-.01-.01-.03,0-.05-.05-.1,0-.21-.03-.31l-.13-1.07c.09-.1.22-.09.33-.09.96,0,1.91,0,2.87,0,.12,0,.24,0,.34.08.1.47.13.95.14,1.42Z"/><path class="cls-15" d="M97.09,31.85c-1.17,0-2.34,0-3.5,0,0-.47,0-.95,0-1.42.1-.09.22-.08.34-.08.95,0,1.89,0,2.84,0,.12,0,.24,0,.34.08,0,.47,0,.95,0,1.42Z"/><path class="cls-34" d="M25.01,32.11c-1.09,0-2.17,0-3.26,0-.2,0-.24-.06-.23-.24,0-.48,0-.48.48-.48,2.08,0,4.16,0,6.23,0,.22,0,.29.04.28.27-.02.43,0,.44-.45.44-1.02,0-2.04,0-3.05,0,0,0,0,0,0,0Z"/><path class="cls-34" d="M3.5,31.4c1.09,0,2.17,0,3.26,0,.19,0,.24.04.24.23-.01.49,0,.49-.49.49-2.07,0-4.14,0-6.21.02-.22,0-.31-.04-.29-.28.02-.46,0-.46.47-.46h3.03Z"/><path class="cls-46" d="M80.25,31.4h.32c2.33,0,4.66,0,7,0,.25,0,.41.05.53.28.06.12.15.22.23.33-.11.06-.2.03-.29.03-1.37,0-2.75,0-4.12,0-.97,0-1.93,0-2.9.02-.23,0-.38-.05-.49-.26-.06-.13-.16-.24-.27-.4Z"/><path class="cls-38" d="M118.19,10.14c-1.18,0-2.36,0-3.54,0-.1-.41-.21-.81-.31-1.22,1.1,0,2.2,0,3.31,0,.11,0,.22.02.32-.05.09.42.2.84.22,1.27Z"/><path class="cls-16" d="M116.31,29.87c-1.43,0-2.86,0-4.29,0-.17,0-.32-.02-.46-.11.34-.27.68-.54,1.02-.81,1.32,0,2.63,0,3.95,0,.12,0,.24-.01.34.06-.18.29-.33.6-.56.86Z"/><path class="cls-42" d="M118.15,31.15c.09.06.19.05.3.05,1.07,0,2.14,0,3.21,0,.1,0,.23-.05.26.12-.23.33-.45.66-.68.99-.09.03-.18.03-.28.03-1.06,0-2.12,0-3.17,0-.13,0-.27.03-.38-.09.25-.37.5-.74.75-1.11Z"/><path class="cls-56" d="M93.58,13.95h3.51c0,.39,0,.78,0,1.17h-3.51c0-.39,0-.78,0-1.17Z"/><path class="cls-14" d="M130.39,14.06c.15-.05.3-.06.45-.06.76,0,1.53,0,2.29,0,.15,0,.3,0,.45.06-.49.73-.98,1.46-1.47,2.2-.05.08-.09.21-.2.04-.5-.75-1.01-1.49-1.52-2.24Z"/><path class="cls-26" d="M97.09,30.43h-3.51c0-.36,0-.71,0-1.07h3.51c0,.36,0,.71,0,1.07Z"/><path class="cls-44" d="M128.53,20.05c-.96.09-1.93.08-2.89,0,.47-.71.95-1.42,1.44-2.15.5.73.97,1.44,1.45,2.15Z"/><path class="cls-42" d="M117.4,32.26c1.17,0,2.34,0,3.51,0,.11,0,.22-.02.32.05-.09.19-.21.36-.34.52-.06-.14-.2-.11-.31-.11-1.17,0-2.33,0-3.5,0,.11-.15.21-.31.32-.46Z"/><path class="cls-21" d="M97.98,3.57c2.53,0,5.05,0,7.58,0,.1,0,.2-.03.3.04-2.43,0-4.87,0-7.3,0-.19,0-.39.04-.58-.03Z"/><path class="cls-21" d="M106.35,3.63c.11,0,.22-.04.32.04-.11,0-.21,0-.32-.04Z"/><path class="cls-38" d="M114.79,11.21c.07.1.02.2.03.31-.05-.1-.04-.2-.03-.31Z"/><path class="cls-31" d="M118.24,24.38c0-.09-.03-.18.04-.25,0,.09.01.17-.04.25Z"/><path class="cls-1" d="M118.33,19.85c0,.56,0,1.12,0,1.68-1.15,0-2.3,0-3.45,0,0-.56,0-1.12,0-1.68.1-.09.22-.08.34-.08.93,0,1.86,0,2.78,0,.12,0,.24-.01.33.08Z"/><path class="cls-30" d="M118.33,15.02c0,.93,0,1.87,0,2.8-.1.09-.22.08-.33.08-.93,0-1.86,0-2.78,0-.12,0-.24,0-.34-.08,0-.93,0-1.86,0-2.8.1-.09.22-.08.34-.08.93,0,1.86,0,2.78,0,.12,0,.24-.01.33.08Z"/><path class="cls-32" d="M114.88,17.82c1.15,0,2.3,0,3.45,0,0,.68,0,1.36,0,2.03-1.15,0-2.3,0-3.45,0,0-.68,0-1.36,0-2.03Z"/><path class="cls-33" d="M118.33,15.02c-1.15,0-2.3,0-3.45,0,0-.5,0-1,0-1.5,0-.17.04-.24.22-.24,1.01,0,2.01,0,3.02,0,.16,0,.23.04.22.21-.01.51,0,1.01-.01,1.52Z"/></svg>